PathFileType	4	(X/Y/Z)	C:/Users/beibeiliu/ov580/test_trc/User3\sequence.9_training_dense_right.trc
DataRate	CameraRate	NumFrames	NumMarkers	Units	OrigDataRate	OrigDataStartFrame	OrigNumFrames
120	120	12	19	mm	120	1	73
Frame#	Time	ThumbCMC			ThumbMCP			ThumbIP			ThumbTip			IndexMCP			IndexPIP			IndexTip			MiddleMCP			MiddlePIP			MiddleTip			RingMCP			RingPIP			RingTip			PinkyMCP			PinkyPIP			PinkyTip			BackHand1			BackHand2			BackHand3	
		X0	Y0	Z0	X1	Y1	Z1	X2	Y2	Z2	X3	Y3	Z3	X4	Y4	Z4	X5	Y5	Z5	X6	Y6	Z6	X7	Y7	Z7	X8	Y8	Z8	X9	Y9	Z9	X10	Y10	Z10	X11	Y11	Z11	X12	Y12	Z12	X13	Y13	Z13	X14	Y14	Z14	X15	Y15	Z15	X16	Y16	Z16	X17	Y17	Z17	X18	Y18	Z18	
0	0	103.66	22.9833	-0.841604	82.2211	11.9304	-27.017	73.3886	2.00697	-54.9112	72.4389	-8.06464	-76.1107	118.222	40.6919	-75.9056	109.726	32.2269	-104.887	100.737	23.8458	-124.304	147.82	36.8364	-80.4499	141.971	30.7366	-109.195	139.875	13.7138	-138.157	162.478	27.232	-73.1009	163.843	21.6832	-100.26	164.914	7.45298	-125.761	178.873	12.8079	-58.2262	186.588	5.03938	-79.7057	191.666	-6.2164	-98.5012	163.291	36.3947	-20.6188	163.196	37.4304	10.8304	132.063	46.0538	-5.52817	
1	0.00833333	103.181	23.2793	-5.68875	87.3584	11.5086	-25.432	76.5014	2.0655	-56.0304	70.2579	-9.02539	-74.328	119.651	39.8152	-75.6138	109.443	33.9421	-104.654	105.561	20.4877	-127.388	145.527	37.2002	-79.4924	142.481	28.9531	-112.937	140.422	12.3916	-139.932	161.253	27.5118	-75.543	168.641	19.9541	-97.273	163.868	7.09048	-125.409	178.989	11.7741	-57.7978	187.607	3.78729	-81.1308	187.491	-7.42331	-102.235	164.133	35.1614	-20.7785	164.666	35.4571	10.0909	133.357	46.9079	-8.58648	
2	0.0166667	102.858	22.6695	-0.252309	88.8919	10.9467	-27.6975	75.9733	1.72324	-55.1772	74.8322	-8.34122	-75.1509	121.41	39.3088	-75.9295	110.892	34.673	-101.105	108.473	21.4168	-124.73	146.86	36.4414	-84.4239	143.457	28.7755	-112.418	141.616	10.2632	-140.559	164.938	25.8874	-74.03	165.631	20.4884	-97.3743	165.127	5.48785	-123.672	180.455	12.4875	-59.2356	187.69	2.98664	-78.613	189.06	-6.51384	-98.8312	166.199	34.7203	-21.7708	169.109	35.0412	7.57705	136.479	46.1069	-6.84646	
3	0.025	102.827	22.8203	-2.9867	86.8875	10.8894	-25.123	77.7752	1.61265	-56.333	73.7475	-9.6062	-76.2752	120.446	40.1681	-73.7882	112.029	32.8531	-104.826	111.077	20.4971	-126.152	151.214	35.4775	-81.9266	147.654	26.8027	-112.835	144.262	9.52028	-138.08	164.171	27.3114	-75.6327	167.195	19.2831	-101.319	163.894	5.17867	-124.094	180.355	12.5314	-58.1143	186.438	4.68681	-77.1843	189.307	-7.88561	-102.638	164.65	37.2489	-21.6155	167.761	33.1715	10.2148	133.482	46.301	-10.2532	
4	0.0333333	102.401	24.1394	-4.35155	88.9556	11.5739	-26.3877	78.1591	2.72979	-55.3949	75.9935	-8.43216	-77.3412	122.392	40.1282	-77.7507	113.182	35.4145	-102.406	112.628	21.6608	-125.592	146.386	37.4905	-79.0778	144.844	27.2015	-112.783	140.97	12.5273	-137.593	162.92	26.5593	-70.9965	163.683	20.1989	-102.086	163.492	6.00986	-126.25	180.906	11.8825	-55.8894	186.031	5.42267	-82.503	187.431	-7.16032	-103.286	164.974	36.3174	-18.8061	171.211	34.837	9.96268	138.569	44.8902	-6.55947	
5	0.0416667	103.512	24.3521	-5.6933	91.9484	12.9229	-27.5279	80.8134	4.59039	-52.0804	77.0403	-4.52721	-75.0307	119.075	39.8381	-76.8554	117.207	33.2464	-105.03	107.263	24.0217	-129.389	147.137	35.9476	-80.4231	145.402	28.1562	-110.553	138.127	14.2129	-137.2	160.353	27.0744	-75.634	164.745	20.98	-100.07	159.435	9.38505	-123.605	180.906	12.4731	-60.3756	182.551	8.36522	-80.3094	187.116	-4.16637	-106.665	168.476	34.5051	-22.9905	168.336	35.2647	5.49301	138.172	45.6733	-11.6934	
6	0.05	105.333	23.2415	-3.80448	88.1139	15.6332	-26.1027	76.9639	8.98092	-55.6209	72.8135	-0.271665	-75.5578	118.12	37.4574	-77.0872	110.466	34.3713	-104.956	111.606	26.0835	-128.419	140.739	34.381	-82.4885	138.338	27.0182	-110.779	133.868	15.2782	-140.057	160.127	23.5932	-76.7782	160.321	18.9711	-100.631	157.655	10.7527	-124.969	174.381	11.198	-58.3885	181.19	5.94367	-83.3905	182.393	-1.01587	-108.406	163.6	34.6653	-21.8538	165.237	34.7796	5.91052	134.594	44.52	-12.0987	
7	0.0583333	102.624	20.9359	2.03514	87.6389	15.1402	-24.8307	77.7832	9.45911	-53.3165	72.3656	2.65691	-75.8799	112.71	34.3191	-76.6258	110.392	30.4768	-105.202	107.642	28.8853	-129.982	137.809	28.7697	-84.219	133.793	24.6066	-111.431	133.036	18.4387	-144.134	156.066	19.0847	-77.6505	156.58	17.0108	-101.14	151.355	15.0363	-124.164	171.025	8.76352	-56.8066	174.374	7.45818	-79.0832	180.658	5.27794	-105.057	160.039	33.0717	-27.5938	164.162	34.5289	6.02685	129.801	43.2018	-10.0051	
8	0.0666667	104.896	18.2964	-2.13844	87.2283	13.6036	-23.6487	79.7647	8.3745	-50.7374	72.2167	1.69629	-72.5991	112.187	27.6404	-77.5649	107.803	28.5147	-102.653	108.583	28.5061	-124.135	135.91	25.4658	-83.0408	132.46	23.0914	-113.201	129.379	22.7897	-137.589	150.901	17.4185	-73.4563	151.179	16.4114	-97.2545	151.322	17.8835	-126.193	169.668	6.98853	-58.5382	169.779	6.98223	-81.1352	178.222	6.30786	-101.65	161.846	29.1869	-28.0627	165.372	32.4782	0.501736	130.792	38.4304	-11.1124	
9	0.075	103.007	17.5841	1.83701	88.0026	11.7008	-25.1529	80.1491	6.95226	-52.1328	74.6451	0.618087	-75.5015	114.752	22.292	-78.0441	107.433	23.1067	-99.9895	110.266	24.8615	-127.469	132.499	22.6235	-86.2161	132.435	20.8326	-113.281	129.631	23.678	-138.28	151.51	13.4933	-74.4002	149.868	13.9468	-97.3478	149.781	17.0904	-124.123	170.797	3.55245	-59.6731	169.161	4.78212	-80.6417	170.899	9.06525	-101.743	156.102	25.0549	-27.4424	164.624	30.728	-3.34999	132.343	37.2062	-13.564	
10	0.0833333	107.2	16.7992	-2.81515	88.547	11.9836	-28.8126	80.1922	3.99561	-55.9222	78.323	-3.64125	-77.7129	114.138	18.4967	-75.8007	111.05	19.0688	-105.516	117.412	20.1915	-125.715	136.036	17.4292	-86.8365	136.603	17.0508	-110.554	133.834	19.8688	-139.721	153.666	10.6867	-79.2987	152.501	11.5353	-99.2102	151.747	14.3948	-124.781	171.521	0.590508	-61.1113	168.179	2.12831	-81.2128	169.694	7.55496	-105.454	157.492	24.343	-28.463	164.649	33.8741	-2.9061	131.553	34.0105	-15.8596	
11	0.0916667	107.562	16.3252	0.00408821	96.1957	10.5423	-27.263	85.722	3.64886	-59.8597	80.0084	-4.04362	-80.8864	116.111	17.1163	-79.5615	117.995	17.3965	-105.606	121.08	18.959	-129.787	136.107	16.6688	-84.61	137.932	16.505	-113.002	134.095	20.4455	-140.702	155.441	10.4432	-79.2055	156.045	10.1181	-99.9559	153.247	13.5583	-127.547	167.952	2.27946	-63.4327	170.286	2.67158	-84.8349	172.51	5.19237	-105.371	161.371	23.447	-34.9938	165.517	33.6705	-5.86989	129.117	33.9252	-21.5259	
